<?xml version="1.0" encoding="UTF-8"?>
<svg width="16px" height="20px" viewBox="0 0 16 20" version="1.1" xmlns="http://www.w3.org/2000/svg" xmlns:xlink="http://www.w3.org/1999/xlink">
    <title>Icon/beschreibung</title>
    <g id="Styleguide" stroke="none" stroke-width="1" fill="none" fill-rule="evenodd">
        <g id="Styleguide-/-Icons" transform="translate(-138.000000, -777.000000)" fill="#A8A39F">
            <g id="Combined-Shape" transform="translate(138.000000, 777.000000)">
                <path d="M11,0 L16,5 L16,18 C16,19.1045695 15.1045695,20 14,20 L14,20 L2,20 C0.8954305,20 1.3527075e-16,19.1045695 0,18 L0,18 L0,2.09763449 C3.0985366e-16,1.00151804 0.882278693,0.109627865 1.97833081,0.0977518857 L1.97833081,0.0977518857 L11,0 Z M12,13 L4,13 L4,14 L12,14 L12,13 Z M12,10 L4,10 L4,11 L12,11 L12,10 Z M12,7 L4,7 L4,8 L12,8 L12,7 Z"></path>
            </g>
        </g>
    </g>
</svg>