<svg id="Ebene_1" data-name="Ebene 1" xmlns="http://www.w3.org/2000/svg" width="337.744" height="61" viewBox="0 0 337.744 61">
  <g>
    <path d="M0,5.4474H4.2842v19.53h10.647V5.4474h4.2836v44.1H14.9312v-20.79H4.2842v20.79H0Z"/>
    <path d="M37.8,17.9845a8.2964,8.2964,0,0,1,2.457,6.1109V49.4845H36.3516l-.378-2.52a6.5044,6.5044,0,0,1-5.8593,3.2129,6.645,6.645,0,0,1-5.418-2.457A8.7614,8.7614,0,0,1,22.68,41.9875V37.83a8.4094,8.4094,0,0,1,2.394-6.1114,8.2428,8.2428,0,0,1,6.1743-2.457h4.7251v-5.418a4.713,4.713,0,0,0-1.1342-3.2758,3.9456,3.9456,0,0,0-3.087-1.26,4.02,4.02,0,0,0-3.15,1.26,4.7106,4.7106,0,0,0-1.1342,3.2758v3.3389H23.1846V24.0954a8.4091,8.4091,0,0,1,2.394-6.1109,8.1622,8.1622,0,0,1,6.1109-2.457A8.2959,8.2959,0,0,1,37.8,17.9845ZM35.9736,33.0417H31.2485a4.0219,4.0219,0,0,0-3.15,1.26,4.7119,4.7119,0,0,0-1.1342,3.2759V41.61a4.964,4.964,0,0,0,1.1972,3.4649,4.1933,4.1933,0,0,0,3.2759,1.3232,4.2954,4.2954,0,0,0,3.3076-1.3232A4.8883,4.8883,0,0,0,35.9736,41.61Z"/>
    <path d="M60.1338,17.89a8.5669,8.5669,0,0,1,1.9214,5.5757v26.082H57.7715V23.8434a4.71,4.71,0,0,0-1.1343-3.2758,3.9454,3.9454,0,0,0-3.0869-1.26,4.02,4.02,0,0,0-3.15,1.26,4.7123,4.7123,0,0,0-1.1338,3.2758V49.5475H44.9824v-33.39h3.9058l.3784,2.394a6.281,6.281,0,0,1,5.6069-3.0239A6.4169,6.4169,0,0,1,60.1338,17.89Z"/>
    <path d="M79.2539,49.5475l-.3149-2.394a6.2847,6.2847,0,0,1-5.6075,3.0239,6.4484,6.4484,0,0,1-5.26-2.331,8.5248,8.5248,0,0,1-1.9214-5.607V23.4655A8.562,8.562,0,0,1,68.0713,17.89a6.4143,6.4143,0,0,1,5.26-2.3623,6.2847,6.2847,0,0,1,5.6075,3.0239V5.4474h4.2837v44.1Zm-7.686-28.98a4.71,4.71,0,0,0-1.1343,3.2758V41.8615a4.7064,4.7064,0,0,0,1.1343,3.2759,4.0169,4.0169,0,0,0,3.15,1.26,3.9425,3.9425,0,0,0,3.0869-1.26,4.7092,4.7092,0,0,0,1.1343-3.2759V23.8434a4.713,4.713,0,0,0-1.1343-3.2758,4.0217,4.0217,0,0,0-3.15-1.26A3.9438,3.9438,0,0,0,71.5679,20.5676Z"/>
    <path d="M101.83,47.72a8.8276,8.8276,0,0,1-12.2221,0A8.4059,8.4059,0,0,1,87.2141,41.61V38.2077h4.2842v3.4648a4.706,4.706,0,0,0,1.1343,3.2759,4.0171,4.0171,0,0,0,3.15,1.26,3.9425,3.9425,0,0,0,3.0869-1.26,4.7081,4.7081,0,0,0,1.1338-3.2759,5.8088,5.8088,0,0,0-1.1655-3.6538,18.8346,18.8346,0,0,0-3.7486-3.4023q-3.1509-2.33-4.63-3.6538a10.3648,10.3648,0,0,1-2.331-2.961,8.3771,8.3771,0,0,1-.85-3.9062,8.3924,8.3924,0,0,1,8.5049-8.5679,8.1653,8.1653,0,0,1,6.1108,2.457,8.4132,8.4132,0,0,1,2.3941,6.1109v3.0869h-4.2842V23.8434a4.7123,4.7123,0,0,0-1.1338-3.2758,4.4106,4.4106,0,0,0-6.1738,0,4.71,4.71,0,0,0-1.1343,3.2758,4.7282,4.7282,0,0,0,1.1025,3.1817,24.4777,24.4777,0,0,0,3.8116,3.3076,54.293,54.293,0,0,1,4.5361,3.6855,10.8932,10.8932,0,0,1,2.4253,3.2759,10.0135,10.0135,0,0,1,.8506,4.3154A8.2933,8.2933,0,0,1,101.83,47.72Z"/>
    <path d="M122.2526,17.9845a8.4132,8.4132,0,0,1,2.3941,6.1109v3.0869H120.363V23.8434a4.7126,4.7126,0,0,0-1.1343-3.2758,3.9454,3.9454,0,0,0-3.0869-1.26,4.02,4.02,0,0,0-3.15,1.26,4.71,4.71,0,0,0-1.1343,3.2758V41.6725a4.706,4.706,0,0,0,1.1343,3.2759,4.0171,4.0171,0,0,0,3.15,1.26,3.9424,3.9424,0,0,0,3.0869-1.26,4.7084,4.7084,0,0,0,1.1343-3.2759V38.2077h4.2837V41.61a8.41,8.41,0,0,1-2.3941,6.1109,8.1649,8.1649,0,0,1-6.1108,2.457,8.3949,8.3949,0,0,1-8.5679-8.5679V24.0954a8.3949,8.3949,0,0,1,8.5679-8.5679A8.1653,8.1653,0,0,1,122.2526,17.9845Z"/>
    <path d="M143.6643,17.89a8.5675,8.5675,0,0,1,1.9214,5.5757v26.082H141.302V23.8434a4.71,4.71,0,0,0-1.1343-3.2758,3.9454,3.9454,0,0,0-3.0869-1.26,4.02,4.02,0,0,0-3.15,1.26,4.7123,4.7123,0,0,0-1.1338,3.2758V49.5475h-4.2842v-44.1h4.2842v13.104a6.4923,6.4923,0,0,1,5.6069-3.0239A6.417,6.417,0,0,1,143.6643,17.89Z"/>
    <path d="M150.6271,16.1574h4.0952l.189,2.394a7.2942,7.2942,0,0,1,2.3306-2.205,5.9585,5.9585,0,0,1,3.0874-.8189,6.83,6.83,0,0,1,1.89.315l-.063,3.4648H159.195a4.02,4.02,0,0,0-3.15,1.26,4.7123,4.7123,0,0,0-1.1338,3.2758V49.5475h-4.2842Z"/>
    <path d="M169.0083,49.5475h-4.2842v-33.39h4.2842Z"/>
    <path d="M173.0437,16.1574h3.7172V9.133a9.2755,9.2755,0,0,1,1.0708-4.5357,7.8117,7.8117,0,0,1,2.8667-3.0244A7.436,7.436,0,0,1,184.573.5021a3.3924,3.3924,0,0,1,.7558.063,1.8212,1.8212,0,0,0,.315.063l-.189,3.6538a4.0734,4.0734,0,0,0-3.2129,1.3545A4.9946,4.9946,0,0,0,181.0446,9.07v7.0874h6.12v3.78h-6.12v29.61h-4.2837v-29.61h-3.7172Z"/>
    <path d="M185.9219,16.1574h3.7168v-8.19l4.2842-.378v8.5679h3.8433v3.78h-3.8433V49.8569a5.0825,5.0825,0,0,0,1.1973,3.4966,4.0694,4.0694,0,0,0,3.2129,1.3545l.1889,3.5908a2.8741,2.8741,0,0,1-1.0713.126A7.5784,7.5784,0,0,1,190.71,54.393a9.2721,9.2721,0,0,1-1.0713-4.5361V19.9377h-3.7168Z"/>
    <path d="M200.6618,24.0954a8.3949,8.3949,0,0,1,8.5678-8.5679,8.1653,8.1653,0,0,1,6.1109,2.457,8.4131,8.4131,0,0,1,2.394,6.1109v10.521h-12.789v7.0561a4.7064,4.7064,0,0,0,1.1342,3.2759,3.9412,3.9412,0,0,0,3.087,1.26,4.0187,4.0187,0,0,0,3.15-1.26,4.7088,4.7088,0,0,0,1.1342-3.2759V38.2077h4.2837V41.61a8.41,8.41,0,0,1-2.394,6.1109,8.165,8.165,0,0,1-6.1109,2.457,8.3949,8.3949,0,0,1-8.5678-8.5679Zm12.789,6.7412V23.8434a4.713,4.713,0,0,0-1.1342-3.2758,3.9456,3.9456,0,0,0-3.087-1.26,4.02,4.02,0,0,0-3.15,1.26,4.7106,4.7106,0,0,0-1.1342,3.2758v6.9932Z"/>
    <path d="M237.3923,17.89a8.5675,8.5675,0,0,1,1.9214,5.5757v26.082H235.03V23.8434a4.7107,4.7107,0,0,0-1.1343-3.2758,3.9455,3.9455,0,0,0-3.0869-1.26,4.02,4.02,0,0,0-3.15,1.26,4.7123,4.7123,0,0,0-1.1338,3.2758V49.5475h-4.2842v-33.39h3.9058l.3784,2.394a6.281,6.281,0,0,1,5.6069-3.0239A6.417,6.417,0,0,1,237.3923,17.89Z"/>
    <path d="M248.0031,16.1574l.3154,2.394a6.281,6.281,0,0,1,5.6069-3.0239,6.4548,6.4548,0,0,1,5.26,2.3311,8.5338,8.5338,0,0,1,1.9214,5.6069V42.2394a8.5669,8.5669,0,0,1-1.9214,5.5757,6.4169,6.4169,0,0,1-5.26,2.3623,6.281,6.281,0,0,1-5.6069-3.0239v13.104h-4.2842v-44.1Zm7.686,28.98a4.7064,4.7064,0,0,0,1.1343-3.2759V23.8434a4.71,4.71,0,0,0-1.1343-3.2758,4.0214,4.0214,0,0,0-3.15-1.26,3.9441,3.9441,0,0,0-3.0869,1.26,4.7123,4.7123,0,0,0-1.1338,3.2758V41.8615a4.7084,4.7084,0,0,0,1.1338,3.2759,4.0172,4.0172,0,0,0,3.15,1.26A3.9422,3.9422,0,0,0,255.6891,45.1374Z" style="fill: #d65151"/>
    <path d="M280.1547,17.9845a8.4128,8.4128,0,0,1,2.3941,6.1109V41.61a8.41,8.41,0,0,1-2.3941,6.1109,8.1647,8.1647,0,0,1-6.1108,2.457A8.3951,8.3951,0,0,1,265.476,41.61V24.0954a8.3951,8.3951,0,0,1,8.5679-8.5679A8.1651,8.1651,0,0,1,280.1547,17.9845Zm-9.2607,2.5831a4.7107,4.7107,0,0,0-1.1343,3.2758V41.6725a4.7065,4.7065,0,0,0,1.1343,3.2759,4.0172,4.0172,0,0,0,3.15,1.26,3.9422,3.9422,0,0,0,3.0869-1.26,4.7084,4.7084,0,0,0,1.1343-3.2759V23.8434a4.7126,4.7126,0,0,0-1.1343-3.2758,3.9452,3.9452,0,0,0-3.0869-1.26A4.02,4.02,0,0,0,270.894,20.5676Z" style="fill: #d65151"/>
    <path d="M287.0625,16.1574h4.0952l.1,2.7613a6.9356,6.9356,0,0,1,2.357-2.0631,5.6774,5.6774,0,0,1,3.0311-.6986c.5454,0,1.0073-.0035,2.0086,0l-.063,3.78s-2.2181.0442-2.9609.0551a4.0884,4.0884,0,0,0-3.15,1.26,4.7124,4.7124,0,0,0-1.1338,3.2759V49.5475h-4.2842Z" style="fill: #d65151"/>
    <path d="M296.1393,16.1574h3.7168v-8.19L304.14,7.59v8.5679h3.8432v3.78H304.14V41.61a5.0826,5.0826,0,0,0,1.1972,3.4966,4.0695,4.0695,0,0,0,3.2129,1.3545l.189,3.5908a2.8749,2.8749,0,0,1-1.0713.126,7.5781,7.5781,0,0,1-6.7407-4.0317,9.2711,9.2711,0,0,1-1.0713-4.5362V19.9377h-3.7168Z" style="fill: #d65151"/>
    <path d="M325.8533,17.9845a8.2964,8.2964,0,0,1,2.457,6.1109V49.4845h-3.9057l-.3779-2.52a6.5046,6.5046,0,0,1-5.8594,3.2129,6.6451,6.6451,0,0,1-5.418-2.457,8.7614,8.7614,0,0,1-2.0161-5.7329V37.83a8.41,8.41,0,0,1,2.394-6.1114,8.2429,8.2429,0,0,1,6.1744-2.457h4.7251v-5.418a4.713,4.713,0,0,0-1.1343-3.2758,3.9455,3.9455,0,0,0-3.0869-1.26,4.02,4.02,0,0,0-3.15,1.26,4.71,4.71,0,0,0-1.1343,3.2758v3.3389h-4.2837V24.0954a8.41,8.41,0,0,1,2.394-6.1109,8.1624,8.1624,0,0,1,6.1109-2.457A8.2959,8.2959,0,0,1,325.8533,17.9845Zm-1.8266,15.0572h-4.7251a4.0216,4.0216,0,0,0-3.15,1.26,4.7115,4.7115,0,0,0-1.1343,3.2759V41.61a4.964,4.964,0,0,0,1.1972,3.4649,4.1933,4.1933,0,0,0,3.2759,1.3232,4.2953,4.2953,0,0,0,3.3076-1.3232,4.8883,4.8883,0,0,0,1.2286-3.4649Z" style="fill: #d65151"/>
    <path d="M337.744,49.5475H333.46v-44.1h4.2842Z" style="fill: #d65151"/>
  </g>
  <circle cx="166.8662" cy="6.5467" r="2.9114" style="fill: #d65151"/>
</svg>
